<?xml version="1.0" encoding="UTF-8" standalone="no"?>
<svg
   id="Livello_2"
   data-name="Livello 2"
   viewBox="0 0 136.22 136.22"
   version="1.1"
   sodipodi:docname="Battle Star Galactica - Colonial Fleet Reserve.svg"
   inkscape:version="1.4.3 (0d15f75, 2025-12-25)"
   xmlns:inkscape="http://www.inkscape.org/namespaces/inkscape"
   xmlns:sodipodi="http://sodipodi.sourceforge.net/DTD/sodipodi-0.dtd"
   xmlns="http://www.w3.org/2000/svg"
   xmlns:svg="http://www.w3.org/2000/svg">
  <sodipodi:namedview
     id="namedview2"
     pagecolor="#505050"
     bordercolor="#ffffff"
     borderopacity="1"
     inkscape:showpageshadow="0"
     inkscape:pageopacity="0"
     inkscape:pagecheckerboard="1"
     inkscape:deskcolor="#505050"
     inkscape:zoom="4.0999853"
     inkscape:cx="78.414916"
     inkscape:cy="110.61015"
     inkscape:window-width="2256"
     inkscape:window-height="1398"
     inkscape:window-x="-11"
     inkscape:window-y="-11"
     inkscape:window-maximized="1"
     inkscape:current-layer="Livello_1-2" />
  <defs
     id="defs1">
    <style
       id="style1">
      .cls-1 {
        stroke-width: 0px;
      }
    </style>
  </defs>
  <ellipse
     style="fill:#305fa0;stroke:none;stroke-width:1.35067;stroke-linecap:round;stroke-linejoin:round;paint-order:markers stroke fill"
     id="path3"
     cx="67.689003"
     cy="68.110634"
     rx="67.689003"
     ry="68.109367" />
  <path
     id="path3-6"
     style="fill:#a09630;fill-opacity:1;stroke:none;stroke-width:0.808617;stroke-linecap:round;stroke-linejoin:round;paint-order:markers stroke fill"
     d="M 68.375 27.111328 A 40.066376 41.241283 0 0 0 28.308594 68.353516 A 40.066376 41.241283 0 0 0 66.974609 109.56836 L 68.175781 112.30664 L 69.498047 109.57812 L 69.5 109.57812 A 40.066376 41.241283 0 0 0 108.44141 68.353516 A 40.066376 41.241283 0 0 0 68.375 27.111328 z " />
  <g
     id="Livello_1-2"
     data-name="Livello 1"
     style="fill:#333333;fill-opacity:1;stroke:none">
    <g
       id="g2"
       style="fill:#000000;fill-opacity:1;stroke:none">
      <path
         class="cls-1"
         d="m69.42,26.18c-20.95-.76-40.61,14.66-42.99,37.74-1.08,10.48,1.5,20.13,7.72,28.63,8.07,11.04,19.15,16.68,32.76,17.48.42.85.83,1.66,1.28,2.57.46-.93.85-1.74,1.28-2.6,11.9-.68,21.98-5.18,29.89-14.06,7.91-8.88,11.46-19.38,10.52-31.22-1.63-20.67-18.24-37.74-40.46-38.54Zm20.55,8.18c.61.42,1.16.79,1.77,1.21-.79,1.4-1.56,2.76-2.35,4.15.52.43.99.82,1.46,1.21,2.14,1.8,4.04,3.83,5.7,6.08,1.23,1.67,2.29,3.43,3.24,5.27.28.55.39,1.08.21,1.7-.29,1.03-.5,2.09-.77,3.26-.57-1.31-1.04-2.48-1.58-3.62-1.19-2.47-2.63-4.8-4.47-6.84-1.12-1.24-2.35-2.39-3.51-3.6-.26-.27-.46-.62-.68-.93-.3-.44-.59-.88-.88-1.33-.07.02-.13.03-.2.05-.01.22-.02.45-.04.75-.5-.37-.99-.72-1.52-1.11,1.21-2.09,2.39-4.14,3.62-6.26Zm3.03,49.5c-2.44,2.64-5.24,4.83-8.5,6.35-1.51.7-3.12,1.24-4.74,1.64-2.27.57-4.58.95-6.88,1.41-.12.02-.24.02-.47.03.39-.69.7-1.31,1.09-1.88.15-.22.47-.4.74-.45,3.64-.6,7.12-1.68,10.37-3.43,1.53-.82,2.9-1.86,4.15-3.07,1.74-1.67,3.24-3.52,4.6-5.5.67-.97,1.56-1.79,2.25-2.75,1.26-1.75,2.45-3.56,3.61-5.27-.57,2.2-1.21,4.48-2.18,6.66-1.03,2.31-2.36,4.41-4.07,6.26Zm3.52-1.75c-.46.62-.91,1.25-1.4,1.85-3.08,3.72-6.59,6.96-10.83,9.34-2.35,1.32-4.84,2.3-7.47,2.91-1.05.24-4.2.73-5.1.45-.44-.97.02-1.79.36-2.62.06-.14.33-.24.52-.28,1.54-.28,3.1-.51,4.64-.82,4.26-.86,8.29-2.27,11.8-4.94,1.37-1.05,2.82-1.99,4.18-3.05.87-.68,1.66-1.47,2.47-2.23.24-.23.43-.51.64-.77.06.06.13.11.19.17Zm2.41-18.95c-.65,3.5-1.63,6.92-3.06,10.19-1.9,4.36-4.51,8.22-8.04,11.43-1.79,1.63-3.91,2.76-6.14,3.68-2.14.88-5.15,1.7-7.61,2.06.18-.32.32-.6.49-.87.66-1.05,1.33-2.09,1.97-3.15.22-.36.5-.55.88-.7,2.45-.98,4.75-2.24,6.87-3.82,2.19-1.64,3.99-3.63,5.54-5.88.7-1.02,1.54-1.93,2.29-2.92,2.28-3.02,4.09-6.32,5.47-9.84.81-2.06,1.49-4.17,2.23-6.26.02,0,.04-.01.06-.02-.31,2.03-.57,4.07-.94,6.09Zm-20.84,14.66c-.21-.15-.41-.3-.64-.46.66-.53,1.29-1.01,1.9-1.52,4.47-3.74,7.31-8.53,9.02-14.05,1.35-4.35,1.67-8.8,1.36-13.31-.1-1.43-.4-2.85-.61-4.28-.04-.28-.09-.55-.03-.88.1.12.21.24.29.38,1.22,2.05,2.16,4.23,2.91,6.48.74,2.23,1.3,4.51,1.46,6.86.13,1.95.22,3.92.12,5.87-.08,1.58-.39,3.17-.76,4.72-.71,2.95-1.95,5.7-3.65,8.23-2.58,3.84-6.05,6.64-10.2,8.65-.42.2-.84.4-1.26.59-.21.09-.43.16-.69.26.53-1.17,1.04-2.26,1.52-3.37.17-.4.28-.83.37-1.26.25-1.2-.09-2.19-1.11-2.92Zm3.78-20.65c-.26-4.23-1.3-8.29-2.96-12.18-1.38-3.24-3.16-6.25-5.26-9.13.18.14.37.26.53.42,2.15,2.05,4.08,4.3,5.77,6.75,1.96,2.83,3.6,5.83,4.91,9.02,1.3,3.14,2.2,6.38,2.78,9.72.06.34.02.73-.08,1.06-1,3.01-2.44,5.79-4.34,8.33-1.27,1.7-2.74,3.22-4.36,4.58-.47.39-.98.74-1.47,1.11-.31.24-.61.26-1,.13-.94-.31-1.91-.56-2.97-.86,1.48-.72,2.64-1.68,3.71-2.78,1.66-1.7,2.73-3.73,3.52-5.94,1.19-3.31,1.43-6.75,1.22-10.22Zm-29.93-25.88c.8,1.36,1.58,2.69,2.4,4.09,9.17-3.66,18.32-3.68,27.56,0,.81-1.37,1.6-2.71,2.43-4.11.65.32,1.26.62,1.92.95-1.22,2.13-2.39,4.16-3.59,6.25-.39-.17-.76-.33-1.13-.5-2.19-1-4.48-1.7-6.83-2.2-.4-.09-.7-.27-1-.53-.82-.71-1.66-1.39-2.5-2.08-.1-.08-.26-.11-.46-.19-.02.66.5.86.78,1.22.3.38.63.74,1.02,1.2-3.02-.37-5.92-.35-8.99.01.71-.83,1.31-1.53,1.98-2.3-.57-.14-.83.18-1.11.41-.6.49-1.18,1-1.75,1.52-.51.46-1.06.76-1.75.9-2.44.49-4.75,1.38-7,2.42-.07.03-.14.05-.3.1-1.18-2.04-2.36-4.08-3.59-6.23.65-.31,1.26-.61,1.94-.93Zm3.7,36.65c1.14,3.05,2.94,5.6,5.71,7.41.41.27.84.5,1.35.8-1.18.36-2.29.69-3.47,1.04-.38-.26-.82-.54-1.22-.85-3.88-3-6.73-6.79-8.63-11.29-.25-.59-.45-1.21-.73-1.79-.3-.62-.27-1.24-.15-1.88.72-3.98,1.94-7.79,3.66-11.45,2.5-5.31,5.85-10,10.13-14.02.17-.16.35-.3.43-.38-1.13,1.72-2.38,3.49-3.48,5.35-1.96,3.31-3.29,6.87-4.18,10.61-.46,1.96-.69,3.95-.82,5.96-.23,3.6.14,7.1,1.41,10.48Zm1.63,13.13c.27,1.31.96,2.44,1.53,3.62.13.28.3.53.54.96-1.05-.46-1.97-.83-2.86-1.27-3.98-1.98-7.31-4.73-9.81-8.43-2.37-3.5-3.78-7.36-4.31-11.56-.22-1.77-.34-3.55-.24-5.32.14-2.34.46-4.67,1.09-6.94.8-2.87,1.91-5.61,3.38-8.21.14-.24.29-.47.55-.68-.08.44-.15.87-.23,1.31-.41,2.13-.63,4.27-.68,6.45-.07,3.19.31,6.33,1.09,9.42.86,3.43,2.26,6.63,4.21,9.59,1.9,2.87,4.22,5.33,7.06,7.29.04.03.06.08.14.17-.09.08-.14.15-.21.19-1.37.8-1.53,2.03-1.25,3.43Zm4.12,11.95c-1.99-.43-3.97-.88-5.94-1.37-3.44-.86-6.43-2.59-9.18-4.8-2.13-1.71-4.01-3.63-5.48-5.94-1.28-2.01-2.26-4.16-2.96-6.45-.32-1.05-.62-2.11-.93-3.17.05-.02.1-.04.16-.07.31.49.63.98.93,1.47,1.21,1.92,2.55,3.75,4.04,5.47.89,1.03,1.62,2.2,2.47,3.27,2.76,3.49,6.1,6.18,10.35,7.68,2.49.88,5.02,1.56,7.61,2,.08.01.15.04.29.08.41.71.8,1.4,1.28,2.24-.99-.14-1.83-.22-2.64-.4Zm2.86.94c.62,1.34.69,1.87.32,2.78-.52,0-1.09.04-1.64,0-3.24-.28-6.35-1.05-9.28-2.46-3-1.44-5.69-3.31-8.16-5.53-2.04-1.84-3.86-3.86-5.51-6.04-.16-.21-.31-.42-.45-.63-.02-.03-.01-.09-.03-.26.47.48.87.89,1.28,1.3,1.97,1.94,4.18,3.58,6.51,5.07,1.56,1,3.08,2.07,4.81,2.77,2.2.89,4.47,1.54,6.8,2,1.77.35,3.54.66,5.35,1Zm-3.27-3.56c-3.29-.7-6.5-1.65-9.46-3.3-1.84-1.02-3.42-2.37-4.88-3.88-3.37-3.5-5.71-7.62-7.36-12.16-1.16-3.18-1.98-6.45-2.47-9.81-.2-1.4-.39-2.8-.48-4.23.09.31.2.61.28.92,1.37,4.82,3.35,9.37,6.14,13.55.86,1.28,1.86,2.47,2.79,3.7.8,1.05,1.57,2.11,2.4,3.13,1.73,2.12,3.83,3.81,6.16,5.23,1.63,1,3.36,1.81,5.14,2.5.18.07.4.17.5.33.86,1.34,1.69,2.7,2.64,4.22-.6-.09-1.01-.12-1.41-.21Zm-24.76-37.53c1.8-3.91,4.31-7.33,7.38-10.33.99-.97,2.08-1.84,3.22-2.84-.74-1.31-1.5-2.64-2.28-4.01.45-.56,1.07-.86,1.73-1.3,1.2,2.07,2.39,4.12,3.62,6.24-.56.41-1.11.82-1.73,1.28.04-.35.06-.63.1-.99-.2.07-.3.09-.37.14-.06.04-.11.11-.14.18-.97,1.9-2.62,3.23-4.01,4.77-2.02,2.23-3.72,4.69-5.02,7.41-.62,1.3-1.15,2.64-1.8,4.14-.31-1.34-.62-2.56-.86-3.79-.05-.27.05-.62.17-.88Zm25.32,49.67c-23.57-4.51-34.18-29.44-25.95-48.11.07.68.14,1.28.2,1.88.12,1.2.28,2.41.34,3.61.03.61-.08,1.24-.22,1.83-.55,2.49-.62,5.01-.56,7.54.09,3.3.75,6.49,1.85,9.6,1.38,3.91,3.47,7.41,6.19,10.54,3.18,3.67,7,6.46,11.41,8.47,1.86.85,3.8,1.47,5.78,1.96.35.09.7.17,1.14.28-.39.84-.56,1.6-.18,2.41Zm12.79,0c-.36.65-.81,1.26-1.29,1.83-1.66,1.98-3.24,4.01-4.45,6.31-.12.23-.22.46-.37.77-.09-.1-.16-.16-.2-.24-1.04-2.28-2.54-4.24-4.12-6.16-.54-.66-1.06-1.33-1.56-2.02-.82-1.12-.72-2.22.28-3.19.46-.45.98-.84,1.44-1.28,1.2-1.16,1.52-2.52.91-4.09-.63-1.65-1.59-3.12-2.5-4.62-1.21-1.98-2.45-3.95-3.58-5.97-.51-.91-.86-1.93-1.18-2.93-.45-1.44-.02-2.45,1.51-3.11,1.29-.56,2.69-.86,4.04-1.3.88-.28,1.78-.54,2.62-.92,1.16-.53,1.45-1.49.87-2.63-.17-.34-.4-.67-.61-.99-.68-1.03-.91-2.15-.59-3.33.47-1.71,1.01-3.41,1.56-5.1.29-.88.65-1.73,1.04-2.76.21.53.37.9.5,1.28.64,1.85,1.31,3.69,1.9,5.56.3.95.59,1.95.25,2.96-.19.55-.48,1.07-.75,1.6-.12.23-.29.43-.42.65-.63,1.12-.38,2.14.77,2.74.63.33,1.33.56,2.02.77,1.38.42,2.8.72,4.15,1.23,2,.75,2.64,1.64,1.88,3.98-.61,1.88-1.66,3.55-2.67,5.23-1.3,2.16-2.62,4.32-3.9,6.5-.44.76-.76,1.58-.8,2.48-.06,1.31.57,2.26,1.5,3.08.45.39.9.77,1.32,1.19.68.68.86,1.65.39,2.49Zm24.44-17.14c-5.37,9.17-13.31,14.83-23.64,17.14-.11-.89-.2-1.62-.3-2.44.07-.02.27-.11.48-.16,2.5-.58,4.91-1.41,7.21-2.54,2.28-1.11,4.39-2.5,6.37-4.09,3.21-2.59,5.8-5.72,7.83-9.3,1.91-3.37,3.15-6.99,3.81-10.81.43-2.48.53-4.98.36-7.47-.12-1.71-.51-3.41-.76-5.11-.06-.43-.13-.87-.09-1.3.15-1.74.34-3.47.52-5.2,3.9,8.47,4.3,20.94-1.77,31.3Z"
         id="path1"
         style="fill:#000000;fill-opacity:1;stroke:none" />
      <path
         class="cls-1"
         d="m130.87,41.6c-3.43-8.11-8.34-15.39-14.6-21.65-6.26-6.25-13.54-11.17-21.65-14.6-8.4-3.55-17.32-5.35-26.51-5.35s-18.11,1.8-26.51,5.35c-8.11,3.43-15.39,8.34-21.65,14.6-6.26,6.26-11.17,13.54-14.6,21.65C1.8,50,0,58.92,0,68.11s1.8,18.11,5.35,26.51c3.43,8.11,8.34,15.39,14.6,21.65,6.26,6.25,13.54,11.17,21.65,14.6,8.4,3.55,17.32,5.35,26.51,5.35s18.11-1.8,26.51-5.35c8.11-3.43,15.4-8.34,21.65-14.6,6.26-6.26,11.17-13.54,14.6-21.65,3.55-8.4,5.35-17.32,5.35-26.51s-1.8-18.11-5.35-26.51Zm1.94,42.25c-1.51.4-3.01.85-4.51,1.26-2.61.72-5.22,1.43-7.84,2.12-.58.15-.91.44-1.14,1.01-.96,2.45-2.13,4.81-3.47,7.08-1.55,2.65-3.3,5.17-5.28,7.53-.15.18-.26.39-.4.59.03.06.06.12.09.19,4.7.02,9.41-.07,14.23-.13-.94,1.5-1.94,2.96-3,4.38-1.83.06-3.55.13-5.26.15-3.46.05-6.92.05-10.37.1-.41,0-.89.13-1.21.37-.75.54-1.42,1.2-2.13,1.79-2.01,1.66-4.05,3.27-6.27,4.65-.61.37-1.2.76-1.87,1.19.19.16.28.28.41.35,3.34,1.84,6.68,3.69,10.04,5.49.45.24.88.54,1.35.77-.93.65-1.87,1.27-2.82,1.87-.64-.27-1.25-.52-1.86-.8-3.81-1.72-7.61-3.44-11.42-5.17-.37-.17-.71-.18-1.11-.04-2.12.74-4.24,1.44-6.36,2.17-.16.05-.3.15-.53.27,2.2,3.51,4.36,6.97,6.53,10.45-.93.3-1.86.58-2.8.84-.01-.01-.02-.02-.03-.04-2.31-2.97-4.61-5.95-6.91-8.93-.39-.5-.8-1-1.16-1.45-2.14.24-4.18.48-6.36.72-.06,4.05.21,8.03.09,11.99-1.1.05-2.21.08-3.32.08-.67,0-1.34-.01-2.01-.03-.06-3.98-.12-7.97-.17-11.94-1.98-.23-3.89-.44-5.81-.66-.37-.04-.64.09-.85.4-.31.45-.65.87-.97,1.3-2.2,2.96-4.4,5.93-6.61,8.89-1.36-.35-2.72-.74-4.06-1.17,2.54-3.42,5.03-6.77,7.61-10.25-.4-.14-.61-.22-.82-.28-2.01-.63-4.04-1.24-6.04-1.91-.49-.16-.87-.17-1.32.05-1.15.58-2.31,1.13-3.48,1.69-3.12,1.48-6.25,2.95-9.36,4.43-.07.03-.14.07-.2.1-1.02-.61-2.02-1.24-3.01-1.9,3.92-2.21,7.84-4.42,11.86-6.69-.29-.21-.44-.33-.61-.43-.62-.36-1.26-.71-1.88-1.08-2.59-1.57-4.95-3.44-7.25-5.4-.75-.64-1.52-1.01-2.57-.98-3.51.08-7.02.06-10.52.08-.26,0-.51.05-.77.05-1.24,0-2.49,0-3.75,0-1.09-1.4-2.12-2.84-3.09-4.32.06,0,.12-.01.18-.01,3.84-.03,7.69-.04,11.53-.06.67,0,1.34,0,2.01-.02.2,0,.41-.08.73-.15-.23-.3-.37-.48-.51-.66-1.11-1.42-2.26-2.82-3.31-4.28-2.43-3.36-4.32-7.02-5.78-10.9-.19-.5-.46-.81-1-.94-3.27-.82-6.54-1.65-9.81-2.49-.99-.25-1.98-.52-2.94-.78-.42-1.67-.77-3.36-1.06-5.07,4.14,1.05,8.18,2.08,12.34,3.14-.05-.37-.06-.59-.11-.8-.28-1.28-.57-2.56-.84-3.85-.55-2.66-.78-5.35-.9-8.05-.12-2.74.06-5.47.36-8.19.06-.52-.08-.8-.54-1.05-2.98-1.64-5.95-3.3-8.92-4.97-.33-.19-.66-.38-1-.59.32-1.57.69-3.13,1.12-4.68,2.67,1.53,5.35,3.03,8.04,4.53.66.37,1.34.71,2.14,1.14,2.11-8.27,5.55-15.75,10.99-22.39-2.76-2.69-5.47-5.34-8.18-7.98.87-1.04,1.77-2.06,2.7-3.05.09.09.17.18.26.27,2.4,2.34,4.8,4.69,7.19,7.03.27.27.56.51.91.83,10.18-10.34,22.42-16,36.74-17.02V1.63c1.11-.05,2.22-.08,3.34-.08.6,0,1.2,0,1.8.02.06,3.97.12,7.87.18,11.92,3.5.27,6.93.6,10.29,1.4,3.37.8,6.65,1.86,9.82,3.26,3.17,1.4,6.18,3.09,9.04,5.04,2.85,1.94,5.45,4.2,7.92,6.56,2.87-2.78,5.67-5.5,8.49-8.23,1.19,1.21,2.33,2.47,3.42,3.76-2.72,2.71-5.37,5.37-7.98,8.14,5.2,6.51,8.84,13.72,10.75,21.86.33-.18.55-.29.77-.42.89-.52,1.78-1.04,2.67-1.56,2.24-1.31,4.48-2.62,6.72-3.93.47,1.61.88,3.24,1.23,4.89-.06.03-.11.06-.17.09-2.8,1.64-5.61,3.28-8.41,4.92-.64.38-1.27.77-1.83,1.1.14,2.5.32,4.88.41,7.27.08,2.4.02,4.8-.32,7.18-.34,2.35-.76,4.69-1.16,7.17,4.12-1.02,8.11-2.26,12.08-3.28-.28,1.72-.62,3.44-1.03,5.13Z"
         id="path2"
         style="fill:#000000;fill-opacity:1;stroke:none" />
    </g>
  </g>
</svg>
