<?xml version="1.0" encoding="UTF-8" standalone="no"?>
<svg
   id="Livello_2"
   data-name="Livello 2"
   viewBox="0 0 119.51 158.48"
   version="1.1"
   sodipodi:docname="Launcher Space.svg"
   inkscape:version="1.4.3 (0d15f75, 2025-12-25)"
   xmlns:inkscape="http://www.inkscape.org/namespaces/inkscape"
   xmlns:sodipodi="http://sodipodi.sourceforge.net/DTD/sodipodi-0.dtd"
   xmlns="http://www.w3.org/2000/svg"
   xmlns:svg="http://www.w3.org/2000/svg">
  <sodipodi:namedview
     id="namedview2"
     pagecolor="#505050"
     bordercolor="#ffffff"
     borderopacity="1"
     inkscape:showpageshadow="0"
     inkscape:pageopacity="0"
     inkscape:pagecheckerboard="1"
     inkscape:deskcolor="#505050"
     inkscape:zoom="7.0482082"
     inkscape:cx="59.802433"
     inkscape:cy="79.239998"
     inkscape:window-width="2256"
     inkscape:window-height="1398"
     inkscape:window-x="-11"
     inkscape:window-y="-11"
     inkscape:window-maximized="1"
     inkscape:current-layer="g2" />
  <defs
     id="defs1">
    <style
       id="style1">
      .cls-1 {
        stroke-width: 0px;
      }
    </style>
  </defs>
  <g
     id="Livello_1-2"
     data-name="Livello 1">
    <g
       id="g2">
      <path
         class="cls-1"
         d="m119.33,133.66c-1.62-.71-3.05-1.37-4.5-1.98-4.64-1.98-9.25-4.02-13.93-5.87-1.54-.61-2.51-1.44-3.17-2.94-3.79-8.61-7.66-17.19-11.49-25.79-4.34-9.75-8.66-19.51-12.99-29.26-3.82-8.6-7.64-17.2-11.46-25.8-.47-1.06-1-2.09-1.74-3.64-1.62,3.55-3.04,6.64-4.42,9.74-4.44,9.98-8.86,19.97-13.29,29.95-5.08,11.44-10.16,22.89-15.25,34.33-1.64,3.69-3.25,7.38-4.98,11.03-.36.76-1.08,1.57-1.83,1.91-6.36,2.84-12.78,5.58-19.18,8.33-.28.12-.61.12-1.04.2,0-.46-.1-.81.01-1.07C19.91,88.51,39.78,44.22,59.57.1c.41-.07.5-.11.58-.1.08.01.18.06.21.12.37.66.77,1.3,1.08,1.98,19.36,43.53,38.71,87.06,58.05,130.6.05.12-.05.32-.16.96Z"
         id="path1"
         style="fill:#c04141;fill-opacity:1" />
      <path
         class="cls-1"
         d="m59.94,158.48c-1.6-2.65-2.97-4.93-4.34-7.21-4.57-7.64-9.09-15.3-13.73-22.89-.87-1.42-.88-2.42-.01-3.85,5.62-9.26,11.14-18.57,16.7-27.87.38-.63.81-1.24,1.36-2.07.5.54.94.89,1.21,1.34,5.7,9.5,11.37,19.02,17.08,28.52.75,1.25,1.03,2.29.18,3.69-5.79,9.55-11.5,19.14-17.25,28.72-.25.42-.59.8-1.21,1.63Z"
         id="path2"
         style="fill:#4142c0;fill-opacity:1" />
    </g>
  </g>
</svg>
